<?xml version="1.0" standalone="no"?>
<!DOCTYPE svg PUBLIC "-//W3C//DTD SVG 20010904//EN"
 "http://www.w3.org/TR/2001/REC-SVG-20010904/DTD/svg10.dtd">
<svg version="1.0" xmlns="http://www.w3.org/2000/svg"
 width="1500.000000pt" height="1500.000000pt" viewBox="0 0 1500.000000 1500.000000"
 preserveAspectRatio="xMidYMid meet">
<metadata>
Created by potrace 1.16, written by Peter Selinger 2001-2019
</metadata>
<g transform="translate(0.000000,1500.000000) scale(0.100000,-0.100000)"
fill="#00000" stroke="none">
<path d="M6995 10276 c-333 -50 -623 -189 -858 -415 -243 -233 -388 -493 -458
-821 -20 -89 -23 -136 -23 -305 -1 -215 10 -299 60 -456 l25 -78 -20 -38 c-58
-114 -85 -293 -63 -412 9 -52 8 -58 -20 -109 -17 -29 -43 -86 -57 -125 l-27
-72 -343 -5 -343 -5 -21 -25 c-18 -21 -34 -87 -82 -339 -38 -202 -62 -306 -67
-294 -4 10 -28 126 -52 258 -25 132 -63 337 -86 455 -22 118 -52 274 -65 345
-85 455 -92 485 -115 510 -49 52 -138 37 -164 -28 -7 -18 -53 -220 -102 -449
-83 -392 -90 -417 -112 -423 -12 -3 -110 -5 -218 -5 -207 1 -229 -3 -253 -49
-6 -10 -43 -330 -83 -710 -40 -381 -76 -681 -79 -669 -4 13 -12 93 -18 179 -6
85 -25 324 -41 530 -16 206 -38 491 -50 634 -11 143 -33 433 -50 645 -39 500
-76 976 -95 1220 -54 686 -67 824 -80 850 -19 37 -67 56 -112 44 -57 -14 -73
-45 -83 -165 -94 -1081 -177 -1834 -265 -2424 -52 -345 -105 -617 -125 -639
-9 -9 -22 33 -41 125 -6 30 -12 124 -13 210 -3 135 -6 160 -22 182 -26 36 -37
39 -127 38 -120 -2 -118 -3 -150 98 -48 152 -125 236 -237 260 -91 20 -192
-17 -253 -91 -38 -47 -87 -140 -107 -203 -7 -22 -17 -44 -22 -50 -6 -6 -133
-10 -340 -11 l-331 -1 -29 -31 c-40 -45 -39 -102 1 -143 l29 -29 392 0 c427 0
437 1 458 57 6 15 16 53 22 83 7 30 27 87 46 125 52 111 101 123 146 37 26
-47 41 -106 53 -195 4 -28 16 -58 30 -75 22 -25 29 -27 127 -32 l103 -5 7
-115 c18 -315 110 -487 267 -498 53 -4 61 -2 94 27 43 39 69 90 103 205 74
257 174 914 255 1689 13 119 26 211 30 205 3 -7 11 -83 18 -168 11 -154 73
-959 111 -1430 11 -135 29 -362 40 -505 11 -143 42 -550 70 -905 28 -355 55
-710 61 -790 6 -80 17 -160 24 -178 17 -38 71 -68 107 -59 38 10 76 44 82 75
3 15 62 567 131 1227 69 660 128 1206 130 1213 3 9 54 12 210 12 222 0 251 6
272 52 6 13 30 114 53 223 23 110 45 203 49 207 4 4 24 -86 45 -200 21 -114
49 -261 62 -327 12 -66 62 -327 109 -580 59 -312 92 -468 104 -485 27 -38 84
-49 130 -25 45 25 48 35 95 285 21 107 66 341 100 520 l63 325 342 5 343 5 23
27 c13 16 29 57 39 102 10 42 19 76 21 76 2 0 30 -28 62 -61 53 -56 150 -131
188 -145 13 -5 15 63 15 610 0 702 12 635 -99 559 -47 -33 -66 -41 -72 -32
-27 44 -30 344 -5 489 72 417 354 793 739 986 212 107 501 160 728 135 349
-40 626 -174 859 -417 230 -240 361 -545 377 -874 6 -112 -11 -315 -26 -325
-4 -2 -30 12 -57 31 -27 20 -61 42 -76 50 l-28 15 0 -615 c0 -496 2 -614 13
-610 7 2 20 -1 30 -8 16 -12 16 -19 1 -102 -53 -306 -175 -490 -359 -542 -181
-51 -357 32 -629 296 -65 63 -127 128 -138 143 l-20 28 34 42 c119 146 271
389 359 572 125 258 164 459 113 582 -35 82 -159 158 -259 158 -100 -1 -176
-56 -246 -180 -17 -30 -32 -55 -34 -55 -1 0 -15 26 -31 58 -38 77 -113 155
-177 182 -100 43 -265 10 -344 -69 -44 -43 -56 -96 -50 -211 12 -226 183 -571
475 -958 108 -144 110 -118 -19 -256 -94 -101 -209 -195 -278 -230 -82 -42
-190 -60 -315 -52 -186 10 -419 75 -436 122 -5 11 -22 26 -38 33 -17 7 -43 27
-59 44 -21 23 -66 47 -151 81 l-123 49 -20 -21 c-11 -12 -24 -22 -29 -22 -23
0 -140 53 -156 71 -9 10 -29 19 -44 19 -22 0 -29 -6 -34 -26 -9 -34 9 -54 48
-55 46 -1 182 -62 177 -80 -2 -8 -5 -21 -8 -30 -3 -12 23 -27 114 -64 110 -46
139 -53 288 -69 17 -2 50 -11 75 -20 82 -31 237 -66 339 -77 165 -19 326 11
438 80 66 41 201 163 283 256 l75 85 89 -95 c162 -175 361 -326 479 -364 93
-30 153 -34 234 -17 87 18 141 45 200 99 110 102 192 281 225 495 8 55 17 82
26 82 7 0 24 11 37 25 19 18 25 35 25 70 0 40 6 54 49 106 27 34 61 85 76 115
15 30 29 53 31 51 6 -6 32 -140 230 -1192 48 -256 59 -283 113 -299 41 -12 89
3 112 34 12 17 50 194 122 565 l104 540 341 5 c403 6 370 -5 408 140 28 109
69 189 106 210 25 13 29 13 55 -6 33 -25 70 -120 79 -202 12 -122 36 -142 172
-142 l89 0 8 -110 c13 -206 56 -355 125 -434 88 -99 220 -101 280 -4 91 147
202 797 316 1843 23 217 34 288 34 227 0 -25 49 -657 170 -2187 16 -209 41
-528 55 -710 77 -1005 84 -1079 103 -1105 30 -40 68 -54 111 -41 66 20 68 27
106 393 62 579 134 1270 175 1663 22 209 42 399 45 423 l6 42 212 0 c225 0
242 3 267 50 6 10 30 112 55 227 25 114 47 213 49 218 1 6 13 -44 25 -110 13
-66 31 -163 41 -215 11 -52 53 -277 95 -500 153 -817 141 -762 175 -792 21
-19 41 -28 65 -28 57 0 93 41 110 125 19 95 116 596 161 833 l37 192 349 0
c385 0 394 1 418 60 18 43 3 97 -33 124 -28 21 -36 21 -423 19 -217 -2 -405
-3 -418 -3 -13 0 -35 -11 -49 -25 -22 -23 -31 -59 -81 -318 -64 -330 -67 -346
-72 -332 -3 9 -112 582 -189 990 -88 466 -106 559 -115 576 -16 29 -68 52
-105 45 -74 -14 -71 -5 -215 -696 -22 -107 -45 -204 -49 -216 -9 -20 -15 -21
-224 -21 -242 -1 -259 -5 -277 -72 -5 -20 -30 -234 -55 -476 -63 -609 -95
-908 -99 -912 -2 -2 -6 34 -10 79 -24 317 -110 1418 -126 1623 -11 138 -45
567 -75 955 -92 1180 -96 1222 -104 1324 -8 95 -10 101 -40 128 -45 40 -93 38
-135 -4 l-32 -33 -18 -205 c-67 -801 -182 -1846 -257 -2335 -52 -340 -112
-635 -128 -635 -19 0 -45 173 -50 336 -5 150 -8 175 -25 193 -26 29 -74 40
-145 34 -94 -9 -105 -3 -118 62 -26 124 -112 244 -201 282 -51 22 -137 21
-194 0 -82 -32 -161 -135 -209 -276 -11 -30 -25 -59 -32 -63 -6 -4 -159 -8
-339 -8 l-327 0 -27 -23 c-25 -22 -31 -45 -89 -343 -35 -182 -65 -310 -68
-299 -4 11 -45 225 -92 475 -230 1219 -199 1074 -237 1104 l-31 24 19 108 c24
147 23 358 -5 515 -111 632 -591 1125 -1226 1259 -129 27 -391 35 -520 16z
m52 -1911 c72 -43 137 -146 169 -267 9 -34 18 -70 21 -78 2 -8 19 28 37 80 61
180 145 270 254 270 49 0 152 -51 186 -91 112 -133 7 -483 -272 -914 -52 -80
-179 -252 -192 -260 -17 -11 -201 237 -315 425 -74 121 -177 333 -209 430 -51
155 -57 270 -16 337 20 34 93 77 157 93 55 13 132 2 180 -25z"/>
<path d="M6258 8533 l-28 -4 0 -673 0 -673 38 -7 c20 -3 65 -6 100 -6 l62 0 0
685 0 685 -72 -1 c-40 -1 -85 -4 -100 -6z"/>
<path d="M7990 7855 l0 -685 64 0 c35 0 78 3 95 6 l31 7 0 672 0 673 -31 6
c-17 3 -60 6 -95 6 l-64 0 0 -685z"/>
</g>
</svg>
